<svg width="32" height="32" viewBox="0 0 32 32" fill="none" xmlns="http://www.w3.org/2000/svg">
<path d="M24.75 14.7143C25.0951 14.7143 25.3896 14.8398 25.6338 15.091C25.8779 15.3421 26 15.6451 26 16C26 16.3549 25.8779 16.6579 25.6338 16.909C25.3896 17.1602 25.0951 17.2857 24.75 17.2857H24.6035L23.4805 23.9353C23.4284 24.2433 23.2852 24.4978 23.0508 24.6987C22.8164 24.8996 22.5495 25 22.25 25H9.75C9.45052 25 9.18359 24.8996 8.94922 24.6987C8.71484 24.4978 8.57161 24.2433 8.51953 23.9353L7.39648 17.2857H7.25C6.90495 17.2857 6.61035 17.1602 6.36621 16.909C6.12207 16.6579 6 16.3549 6 16C6 15.6451 6.12207 15.3421 6.36621 15.091C6.61035 14.8398 6.90495 14.7143 7.25 14.7143H24.75ZM10.7363 22.75C10.9056 22.7366 11.0472 22.6613 11.1611 22.524C11.2751 22.3867 11.3255 22.231 11.3125 22.0569L11 17.8783C10.987 17.7042 10.9137 17.5586 10.7803 17.4414C10.6468 17.3242 10.4954 17.2723 10.3262 17.2857C10.1569 17.2991 10.0153 17.3744 9.90137 17.5117C9.78743 17.649 9.73698 17.8047 9.75 17.9788L10.0625 22.1574C10.0755 22.3248 10.1423 22.4654 10.2627 22.5792C10.3831 22.6931 10.5247 22.75 10.6875 22.75H10.7363ZM14.75 22.1071V17.9286C14.75 17.7545 14.6882 17.6038 14.5645 17.4766C14.4408 17.3493 14.2943 17.2857 14.125 17.2857C13.9557 17.2857 13.8092 17.3493 13.6855 17.4766C13.5618 17.6038 13.5 17.7545 13.5 17.9286V22.1071C13.5 22.2812 13.5618 22.4319 13.6855 22.5592C13.8092 22.6864 13.9557 22.75 14.125 22.75C14.2943 22.75 14.4408 22.6864 14.5645 22.5592C14.6882 22.4319 14.75 22.2812 14.75 22.1071ZM18.5 22.1071V17.9286C18.5 17.7545 18.4382 17.6038 18.3145 17.4766C18.1908 17.3493 18.0443 17.2857 17.875 17.2857C17.7057 17.2857 17.5592 17.3493 17.4355 17.4766C17.3118 17.6038 17.25 17.7545 17.25 17.9286V22.1071C17.25 22.2812 17.3118 22.4319 17.4355 22.5592C17.5592 22.6864 17.7057 22.75 17.875 22.75C18.0443 22.75 18.1908 22.6864 18.3145 22.5592C18.4382 22.4319 18.5 22.2812 18.5 22.1071ZM21.9375 22.1574L22.25 17.9788C22.263 17.8047 22.2126 17.649 22.0986 17.5117C21.9847 17.3744 21.8431 17.2991 21.6738 17.2857C21.5046 17.2723 21.3532 17.3242 21.2197 17.4414C21.0863 17.5586 21.013 17.7042 21 17.8783L20.6875 22.0569C20.6745 22.231 20.7249 22.3867 20.8389 22.524C20.9528 22.6613 21.0944 22.7366 21.2637 22.75H21.3125C21.4753 22.75 21.6169 22.6931 21.7373 22.5792C21.8577 22.4654 21.9245 22.3248 21.9375 22.1574ZM10.6484 9.93304L9.74023 14.0714H8.45117L9.4375 9.64174C9.5612 9.05245 9.85091 8.57199 10.3066 8.20033C10.7624 7.82868 11.2832 7.64286 11.8691 7.64286H13.5C13.5 7.46875 13.5618 7.31808 13.6855 7.19085C13.8092 7.06362 13.9557 7 14.125 7H17.875C18.0443 7 18.1908 7.06362 18.3145 7.19085C18.4382 7.31808 18.5 7.46875 18.5 7.64286H20.1309C20.7168 7.64286 21.2376 7.82868 21.6934 8.20033C22.1491 8.57199 22.4388 9.05245 22.5625 9.64174L23.5488 14.0714H22.2598L21.3516 9.93304C21.2799 9.63839 21.1318 9.39732 20.9072 9.20982C20.6826 9.02232 20.4238 8.92857 20.1309 8.92857H18.5C18.5 9.10268 18.4382 9.25335 18.3145 9.38058C18.1908 9.50781 18.0443 9.57143 17.875 9.57143H14.125C13.9557 9.57143 13.8092 9.50781 13.6855 9.38058C13.5618 9.25335 13.5 9.10268 13.5 8.92857H11.8691C11.5762 8.92857 11.3174 9.02232 11.0928 9.20982C10.8682 9.39732 10.7201 9.63839 10.6484 9.93304Z" fill="#8F8FB2"/>
</svg>
